<svg xmlns="http://www.w3.org/2000/svg" viewBox="89.55999755859375 50.000000000000014 395.8800048828125 474.99921436140664"> <g transform="rotate(0 287.5 247.9820872815699)"><svg xmlns="http://www.w3.org/2000/svg" xmlns:xlink="http://www.w3.org/1999/xlink" version="1.1" id="Layer_1" x="159.56089175676465" y="120.00000000000001" viewBox="364 364 471.9425048828125 472.10003662109375" xml:space="preserve" height="255.96417456313978" width="255.87821648647073" preserveAspectRatio="xMinYMin" enable-background="new 0 0 1200 1200" style="overflow: visible;"><linearGradient id="SVGID_1_" gradientUnits="userSpaceOnUse" x1="476.6296" y1="600.0087" x2="835.9602" y2="600.0087" style=""><stop offset="3.955238e-02" style="stop-color: #FD2C2D;"></stop><stop offset="0.8204" style="stop-color: #FD7B2D;"></stop></linearGradient><path class="st0" d="M835.9,603.1c-1.1,42.1-26.5,79.8-64.2,98.7L609.1,783l-51.1,25.5c-0.1,0.1-0.2,0.1-0.2,0.1   c-32.4,15.9-81.2-19.5-81.2-85.3L723.4,600L476.6,476.6c0-66,49.1-101.3,81.4-85.1l155.4,77.7l60.2,30.1   C812.8,518.8,837.1,559.2,835.9,603.1z" style="fill: url(#SVGID_1_);"></path><path class="st1" d="M476.6,476.6c0-66,49.1-101.3,81.4-85.2L527,375.9c-15.9-7.9-33.1-11.9-50.3-11.9c-22.4,0-44.8,6.7-63.9,19.9   c-31,21.4-48.6,57.3-48.6,95v80h112.6V476.6z M476.6,723.4v-82.3H364v80c0,37.6,17.6,73.6,48.6,95c19.2,13.3,41.6,20,64,20   c17.2,0,34.5-3.9,50.3-11.9l30.8-15.4C525.5,824.5,476.6,789.2,476.6,723.4z" style="fill: #FD7B2D; fill-opacity: 1;"></path></svg></g> <g transform="rotate(0 287.5 430.7092134458793)"><svg xmlns="http://www.w3.org/2000/svg" y="406.41921253035196" viewBox="2.619999885559082 17.18000030517578 255.8800048828125 48.58000183105469" x="159.55999755859375" height="48.58000183105469" width="255.8800048828125" style="overflow: visible;"><g fill="#ffffff" fill-opacity="1" style=""><path d="M28.25 65.76L28.25 65.76Q22.68 65.76 18.02 63.99Q13.35 62.21 9.90 58.92Q6.44 55.63 4.53 51.20Q2.62 46.77 2.62 41.47L2.62 41.47Q2.62 36.17 4.53 31.74Q6.44 27.31 9.93 24.02Q13.42 20.74 18.12 18.96Q22.82 17.18 28.45 17.18L28.45 17.18Q34.69 17.18 39.69 19.26Q44.69 21.34 48.12 25.30L48.12 25.30L41.14 31.74Q38.59 29.06 35.57 27.75Q32.55 26.44 28.99 26.44L28.99 26.44Q25.57 26.44 22.75 27.51Q19.93 28.59 17.88 30.60Q15.84 32.61 14.73 35.37Q13.62 38.12 13.62 41.47L13.62 41.47Q13.62 44.76 14.73 47.51Q15.84 50.26 17.88 52.31Q19.93 54.36 22.72 55.43Q25.50 56.50 28.86 56.50L28.86 56.50Q32.08 56.50 35.13 55.46Q38.18 54.42 41.07 51.94L41.07 51.94L47.24 59.79Q43.42 62.68 38.35 64.22Q33.29 65.76 28.25 65.76ZM47.24 59.79L37.31 58.38L37.31 40.73L47.24 40.73L47.24 59.79ZM73.75 65.50L73.75 65.50Q67.98 65.50 63.52 63.08Q59.05 60.66 56.47 56.47Q53.89 52.28 53.89 46.91L53.89 46.91Q53.89 41.47 56.47 37.28Q59.05 33.08 63.52 30.70Q67.98 28.32 73.75 28.32L73.75 28.32Q79.45 28.32 83.95 30.70Q88.45 33.08 91.00 37.24Q93.55 41.40 93.55 46.91L93.55 46.91Q93.55 52.28 91.00 56.47Q88.45 60.66 83.95 63.08Q79.45 65.50 73.75 65.50ZM73.75 56.91L73.75 56.91Q76.37 56.91 78.45 55.70Q80.53 54.49 81.74 52.24Q82.94 49.99 82.94 46.91L82.94 46.91Q82.94 43.75 81.74 41.54Q80.53 39.32 78.45 38.12Q76.37 36.91 73.75 36.91L73.75 36.91Q71.13 36.91 69.05 38.12Q66.97 39.32 65.73 41.54Q64.49 43.75 64.49 46.91L64.49 46.91Q64.49 49.99 65.73 52.24Q66.97 54.49 69.05 55.70Q71.13 56.91 73.75 56.91ZM122.60 64.96L101.26 64.96L101.26 17.98L122.60 17.98Q130.25 17.98 136.09 20.90Q141.93 23.82 145.22 29.06Q148.51 34.29 148.51 41.47L148.51 41.47Q148.51 48.59 145.22 53.85Q141.93 59.12 136.09 62.04Q130.25 64.96 122.60 64.96L122.60 64.96ZM112.14 26.91L112.14 56.03L122.07 56.03Q126.76 56.03 130.22 54.26Q133.68 52.48 135.59 49.19Q137.50 45.90 137.50 41.47L137.50 41.47Q137.50 36.98 135.59 33.72Q133.68 30.47 130.22 28.69Q126.76 26.91 122.07 26.91L122.07 26.91L112.14 26.91ZM187.90 64.96L178.10 64.96L178.10 57.91L177.43 56.37L177.43 43.75Q177.43 40.40 175.38 38.52Q173.34 36.64 169.11 36.64L169.11 36.64Q166.22 36.64 163.44 37.55Q160.65 38.45 158.71 40.00L158.71 40.00L154.95 32.68Q157.90 30.60 162.06 29.46Q166.22 28.32 170.52 28.32L170.52 28.32Q178.77 28.32 183.34 32.21Q187.90 36.10 187.90 44.36L187.90 44.36L187.90 64.96ZM167.10 65.50L167.10 65.50Q162.87 65.50 159.85 64.05Q156.83 62.61 155.22 60.13Q153.61 57.64 153.61 54.56L153.61 54.56Q153.61 51.34 155.18 48.92Q156.76 46.51 160.18 45.13Q163.61 43.75 169.11 43.75L169.11 43.75L178.71 43.75L178.71 49.86L170.25 49.86Q166.56 49.86 165.18 51.07Q163.81 52.28 163.81 54.09L163.81 54.09Q163.81 56.10 165.38 57.28Q166.96 58.45 169.71 58.45L169.71 58.45Q172.33 58.45 174.41 57.21Q176.49 55.97 177.43 53.55L177.43 53.55L179.04 58.38Q177.90 61.87 174.88 63.68Q171.86 65.50 167.10 65.50ZM212.12 65.50L212.12 65.50Q205.75 65.50 202.19 62.24Q198.64 58.99 198.64 52.54L198.64 52.54L198.64 20.87L209.11 20.87L209.11 52.41Q209.11 54.69 210.31 55.93Q211.52 57.18 213.60 57.18L213.60 57.18Q216.08 57.18 217.83 55.83L217.83 55.83L220.65 63.21Q219.04 64.36 216.79 64.93Q214.54 65.50 212.12 65.50ZM218.10 37.71L193.07 37.71L193.07 29.66L218.10 29.66L218.10 37.71ZM258.50 64.96L248.70 64.96L248.70 57.91L248.03 56.37L248.03 43.75Q248.03 40.40 245.98 38.52Q243.93 36.64 239.71 36.64L239.71 36.64Q236.82 36.64 234.04 37.55Q231.25 38.45 229.30 40.00L229.30 40.00L225.55 32.68Q228.50 30.60 232.66 29.46Q236.82 28.32 241.12 28.32L241.12 28.32Q249.37 28.32 253.93 32.21Q258.50 36.10 258.50 44.36L258.50 44.36L258.50 64.96ZM237.69 65.50L237.69 65.50Q233.46 65.50 230.45 64.05Q227.43 62.61 225.81 60.13Q224.20 57.64 224.20 54.56L224.20 54.56Q224.20 51.34 225.78 48.92Q227.36 46.51 230.78 45.13Q234.20 43.75 239.71 43.75L239.71 43.75L249.30 43.75L249.30 49.86L240.85 49.86Q237.16 49.86 235.78 51.07Q234.40 52.28 234.40 54.09L234.40 54.09Q234.40 56.10 235.98 57.28Q237.56 58.45 240.31 58.45L240.31 58.45Q242.93 58.45 245.01 57.21Q247.09 55.97 248.03 53.55L248.03 53.55L249.64 58.38Q248.50 61.87 245.48 63.68Q242.46 65.50 237.69 65.50Z" transform="translate(0, 0)"></path></g></svg></g></svg>